<svg width="50" height="50" viewBox="0 0 50 50" fill="none" xmlns="http://www.w3.org/2000/svg">
<path d="M47.8413 35.607C47.1838 35.0206 46.3584 34.7503 45.5177 34.8469C44.1059 35.0083 42.2573 35.3896 40.3001 35.7933C37.6572 36.3384 34.9244 36.902 32.8321 37.0328C31.0247 37.1454 27.7333 36.6745 26.7581 36.1637C26.1004 35.8192 25.7324 35.3967 25.5263 35.0231H29.5826C31.2561 35.0231 32.6175 33.6617 32.6175 31.9883V29.6051C32.6175 27.9318 31.2561 26.5705 29.5826 26.5705H18.4635C17.9911 26.556 12.3181 26.4492 8.3895 29.8002C7.69418 30.3933 7.14117 30.9537 6.70017 31.4629C6.23365 30.8799 5.51677 30.5054 4.71369 30.5054H1.08902C0.48757 30.5054 0 30.993 0 31.5944V46.9793C0 47.2681 0.114814 47.5451 0.318927 47.7494C0.523248 47.9536 0.800274 48.0683 1.08902 48.0683L4.71359 48.0682C6.11635 48.0682 7.25754 46.927 7.25754 45.5243V44.6873C8.34147 44.7554 10.798 45.0236 15.9968 45.9997C22.1361 47.1525 25.967 47.5432 28.9852 47.5431C31.1483 47.5431 32.8944 47.3425 34.7727 47.0779C37.0946 46.7511 40.0149 45.925 42.5915 45.1962C43.7842 44.8588 44.9108 44.5402 45.9077 44.2888C48.594 43.6112 48.9952 41.9173 48.9952 40.9678V38.1935C48.9952 37.2185 48.5637 36.2516 47.8413 35.607ZM5.0796 45.5243C5.0796 45.7261 4.91542 45.8901 4.71369 45.8901L2.17804 45.8902V32.6835H4.71359C4.91532 32.6835 5.0795 32.8476 5.0795 33.0494V45.5243H5.0796ZM46.8172 40.9679C46.8172 41.1992 46.8172 41.8132 45.3752 42.1768C44.3481 42.4359 43.2069 42.7586 41.9987 43.1004C39.489 43.8103 36.6444 44.615 34.4691 44.9211C30.1839 45.5245 26.611 45.7766 16.3987 43.8592C11.1466 42.873 8.53978 42.575 7.25754 42.5066V34.4208C7.29643 34.3722 7.33242 34.3204 7.36343 34.2639C7.64243 33.7548 8.33038 32.7134 9.80294 31.4574C13.1605 28.5935 18.3512 28.7461 18.4024 28.7478C18.4165 28.7484 18.4306 28.7487 18.4447 28.7487H29.5827C30.0552 28.7487 30.4396 29.1329 30.4396 29.6053V31.9884C30.4396 32.4609 30.0552 32.8451 29.5827 32.8451H18.4447C17.8432 32.8451 17.3557 33.3327 17.3557 33.9342C17.3557 34.5356 17.8432 35.0232 18.4447 35.0232H23.2132C23.4372 35.9162 24.055 37.2066 25.7475 38.0932C27.2955 38.9041 31.135 39.3218 32.9678 39.2067C35.2137 39.0664 38.0232 38.487 40.7401 37.9265C42.6481 37.5329 44.4503 37.1612 45.7653 37.0108C46.0424 36.9795 46.2585 37.1138 46.3914 37.2324C46.654 37.4667 46.8173 37.8351 46.8173 38.1937V40.9679H46.8172Z" fill="#0000FF"/>
<path d="M47.2071 1.93171H8.95713C7.41715 1.93171 6.16426 3.1846 6.16426 4.72458V22.6568C6.16426 24.1969 7.41715 25.4499 8.95713 25.4499H47.2071C48.7471 25.4499 50 24.1969 50 22.6568V4.72448C50 3.1846 48.7471 1.93171 47.2071 1.93171ZM41.8046 23.2717H14.362C14.0734 20.0248 11.549 17.4128 8.3424 16.9883V10.096C11.4505 9.6845 13.9173 7.21771 14.3287 4.10965H41.8378C42.2493 7.21709 44.7149 9.68346 47.822 10.0958V16.9885C44.6165 17.4139 42.0931 20.0256 41.8046 23.2717ZM47.822 4.72448V7.89072C45.9178 7.51828 44.4145 6.01419 44.0427 4.10965H47.2071C47.5462 4.10975 47.822 4.38553 47.822 4.72448ZM8.95713 4.10975H12.1237C11.752 6.01502 10.2476 7.51942 8.3423 7.89124V4.72448C8.3424 4.38553 8.61819 4.10975 8.95713 4.10975ZM8.3424 22.6568V19.1932C10.3456 19.5841 11.9053 21.2272 12.1715 23.2717H8.95713C8.61819 23.2717 8.3424 22.9958 8.3424 22.6568ZM47.2071 23.2717H43.995C44.2612 21.2279 45.8197 19.5851 47.8219 19.1936V22.6568C47.822 22.9958 47.5462 23.2717 47.2071 23.2717Z" fill="#0000FF"/>
<path d="M28.1408 5.89979C23.8448 5.89979 20.3497 9.39471 20.3497 13.6906C20.3497 17.9867 23.8448 21.4817 28.1408 21.4817C32.4367 21.4817 35.9317 17.9867 35.9317 13.6906C35.9317 9.39482 32.4367 5.89979 28.1408 5.89979ZM28.1408 19.3038C25.0457 19.3038 22.5278 16.7858 22.5278 13.6907C22.5278 10.5958 25.0457 8.07793 28.1408 8.07793C31.2358 8.07793 33.7537 10.5958 33.7537 13.6907C33.7537 16.7857 31.2358 19.3038 28.1408 19.3038Z" fill="#0000FF"/>
<path d="M15.603 10.341C13.7558 10.341 12.2531 11.8437 12.2531 13.6908C12.2531 15.5379 13.7558 17.0406 15.603 17.0406C17.45 17.0406 18.9527 15.5379 18.9527 13.6908C18.9527 11.8437 17.45 10.341 15.603 10.341ZM15.603 14.8624C14.9569 14.8624 14.4312 14.3369 14.4312 13.6907C14.4312 13.0446 14.9568 12.519 15.603 12.519C16.2491 12.519 16.7746 13.0446 16.7746 13.6907C16.7746 14.3369 16.2491 14.8624 15.603 14.8624Z" fill="#0000FF"/>
<path d="M40.6784 10.341C38.8313 10.341 37.3287 11.8437 37.3287 13.6908C37.3287 15.5379 38.8313 17.0406 40.6784 17.0406C42.5256 17.0406 44.0283 15.5379 44.0283 13.6908C44.0283 11.8437 42.5256 10.341 40.6784 10.341ZM40.6784 14.8624C40.0323 14.8624 39.5067 14.3369 39.5067 13.6907C39.5067 13.0446 40.0323 12.519 40.6784 12.519C41.3246 12.519 41.8503 13.0446 41.8503 13.6907C41.8503 14.3369 41.3247 14.8624 40.6784 14.8624Z" fill="#0000FF"/>
</svg>
