<svg width="50" height="50" viewBox="0 0 50 50" fill="none" xmlns="http://www.w3.org/2000/svg">
<g clip-path="url(#clip0_3_30)">
<path d="M26.9884 29.769C24.6541 29.2678 22.5235 28.1059 20.8268 26.4093C18.4809 24.0635 17.189 20.9447 17.189 17.6272C17.189 14.3098 18.4809 11.191 20.8268 8.84517C25.6694 4.00283 33.5485 4.00283 38.391 8.84517C41.8564 12.3107 42.961 17.5074 41.2049 22.0844C40.9631 22.715 41.2781 23.4224 41.9087 23.6644C42.5395 23.9059 43.2467 23.5912 43.4888 22.9606C45.5905 17.4827 44.2683 11.2632 40.1206 7.1156C37.3128 4.30778 33.5797 2.76151 29.609 2.76151C25.6381 2.76151 21.905 4.30778 19.0972 7.1156C16.2894 9.92342 14.7431 13.6565 14.7431 17.6272C14.7431 21.1873 15.9895 24.554 18.2701 27.2364L15.0363 30.4703L13.0931 28.5271C12.6155 28.0495 11.841 28.0495 11.3635 28.5271L1.5073 38.3832C-0.502433 40.3929 -0.502433 43.6629 1.5073 45.6728L1.5634 45.7289C2.53695 46.7025 3.83144 47.2387 5.20828 47.2387C6.58512 47.2387 7.87944 46.7025 8.853 45.7289L14.5163 40.0657C14.9939 39.588 14.9939 38.8136 14.5163 38.3361C14.0386 37.8584 13.2642 37.8584 12.7867 38.3361L7.12326 43.9992C6.6117 44.5107 5.93152 44.7924 5.20812 44.7924C4.48455 44.7924 3.80453 44.5106 3.29297 43.9992L3.23687 43.9431C2.18096 42.887 2.18096 41.1689 3.23687 40.1128L12.2282 31.1215L16.9793 35.8727C17.457 36.3503 18.2314 36.3503 18.7089 35.8727C19.1866 35.395 19.1866 34.6206 18.7089 34.1431L16.7657 32.1999L19.9985 28.9671C21.8618 30.5488 24.0778 31.6459 26.4747 32.1606C26.5613 32.1792 26.6477 32.188 26.7327 32.188C27.2967 32.188 27.8041 31.7953 27.9274 31.2215C28.0692 30.5612 27.6488 29.9108 26.9884 29.769Z" fill="#0000FF"/>
<path d="M39.5106 25.1869C33.7266 25.1869 29.0211 29.8924 29.0211 35.6763C29.0211 41.4603 33.7266 46.1658 39.5106 46.1658C45.2945 46.1658 50 41.4603 50 35.6763C50 29.8924 45.2945 25.1869 39.5106 25.1869ZM39.5106 43.7197C35.0754 43.7197 31.4672 40.1115 31.4672 35.6763C31.4672 31.2412 35.0754 27.633 39.5106 27.633C43.9457 27.633 47.5539 31.2412 47.5539 35.6763C47.5539 40.1115 43.9457 43.7197 39.5106 43.7197Z" fill="#0000FF"/>
<path d="M42.4834 32.2369L38.1989 36.5214L36.5377 34.8601C36.06 34.3825 35.2856 34.3825 34.8081 34.8601C34.3305 35.3378 34.3305 36.1122 34.8081 36.5897L37.3341 39.1157C37.5729 39.3545 37.886 39.474 38.1989 39.474C38.5119 39.474 38.825 39.3546 39.0637 39.1157L44.2131 33.9663C44.6908 33.4887 44.6908 32.7142 44.2131 32.2368C43.7355 31.7593 42.961 31.7593 42.4834 32.2369Z" fill="#0000FF"/>
</g>
<defs>
<clipPath id="clip0_3_30">
<rect width="50" height="50" fill="white"/>
</clipPath>
</defs>
</svg>
