<svg width="50" height="50" viewBox="0 0 50 50" fill="none" xmlns="http://www.w3.org/2000/svg">
<path d="M25 1.92308C27.8846 1.92308 30.2212 5.08654 32.7789 6.17308C35.3365 7.25962 39.3365 6.66346 41.2789 8.72115C43.2212 10.7788 42.7308 14.5577 43.8269 17.2212C44.9231 19.8846 48.0769 22.1154 48.0769 25C48.0769 27.8846 44.9135 30.2212 43.8269 32.7788C42.7404 35.3365 43.3365 39.3365 41.2789 41.2788C39.2212 43.2212 35.4423 42.75 32.7789 43.8269C30.1154 44.9038 27.8846 48.0769 25 48.0769C22.1154 48.0769 19.7789 44.9135 17.2212 43.8269C14.6635 42.7404 10.6635 43.3365 8.72116 41.2788C6.77885 39.2212 7.25 35.4423 6.17308 32.7788C5.09616 30.1154 1.92308 27.8846 1.92308 25C1.92308 22.1154 5.08654 19.7788 6.17308 17.2212C7.25962 14.6635 6.66346 10.6635 8.72116 8.72115C10.7788 6.77885 14.5577 7.25 17.2212 6.17308C19.8846 5.09615 22.1154 1.92308 25 1.92308ZM25 9.21154C21.8773 9.21154 18.8248 10.1375 16.2284 11.8724C13.632 13.6072 11.6084 16.0731 10.4134 18.958C9.21838 21.843 8.90571 25.0175 9.51491 28.0802C10.1241 31.1428 11.6278 33.9561 13.8359 36.1641C16.0439 38.3722 18.8572 39.8759 21.9198 40.4851C24.9825 41.0943 28.157 40.7816 31.042 39.5866C33.927 38.3916 36.3928 36.368 38.1276 33.7716C39.8625 31.1752 40.7885 28.1227 40.7885 25V25C40.7758 20.8165 39.1083 16.808 36.1501 13.8499C33.192 10.8917 29.1835 9.22422 25 9.21154V9.21154ZM32.3269 18.0096L33.875 19.4712C34.0333 19.6801 34.119 19.935 34.119 20.1971C34.119 20.4592 34.0333 20.7142 33.875 20.9231L24.1154 31.7981C23.9224 32.0169 23.6838 32.1905 23.4162 32.3069C23.1487 32.4232 22.8589 32.4793 22.5673 32.4712C22.2772 32.4695 21.9903 32.4091 21.7243 32.2934C21.4582 32.1777 21.2183 32.0092 21.0192 31.7981L15.7404 26.5385C15.6437 26.4556 15.5644 26.3544 15.5072 26.2406C15.4499 26.1269 15.4158 26.0029 15.4069 25.8759C15.3979 25.7488 15.4143 25.6213 15.4551 25.5007C15.4958 25.38 15.5601 25.2687 15.6442 25.1731L15.7404 25.0673L17.3077 23.6154C17.4965 23.4123 17.7574 23.2915 18.0343 23.2789C18.3113 23.2664 18.5821 23.363 18.7885 23.5481L18.8558 23.6154L22.5962 27.4615L30.8558 18.0385C31.0493 17.8436 31.311 17.7317 31.5855 17.7263C31.8601 17.7209 32.1259 17.8225 32.3269 18.0096Z" fill="#0000FF"/>
</svg>
