<svg width="30" height="35" viewBox="0 0 30 35" fill="none" xmlns="http://www.w3.org/2000/svg">
<path d="M19.7479 20.1869C20.0955 20.1869 20.3773 20.4399 20.3773 20.752C20.3773 21.0641 20.0955 21.3172 19.7479 21.3172H14.3328C13.9852 21.3172 13.7034 21.0641 13.7034 20.752C13.7034 20.4399 13.9852 20.1869 14.3328 20.1869H19.7479ZM23.2415 18.2051C23.2415 17.893 22.9597 17.64 22.6121 17.64H14.3328C13.9852 17.64 13.7034 17.893 13.7034 18.2051C13.7034 18.5172 13.9852 18.7702 14.3328 18.7702H22.6121C22.9597 18.7702 23.2415 18.5172 23.2415 18.2051ZM9.64536 5.26274V2.75893C9.64536 2.44681 9.92714 2.19379 10.2747 2.19379L12.558 2.19258C12.558 0.983666 13.6534 0 14.9999 0C16.3465 0 17.442 0.983666 17.442 2.19258V2.19379H19.7251C20.0727 2.19379 20.3545 2.44681 20.3545 2.75893V5.26274C20.3545 5.57486 20.0727 5.82788 19.7251 5.82788H10.2747C9.92714 5.82788 9.64536 5.57486 9.64536 5.26274ZM10.9041 4.6976H19.0956V3.32407H16.8125C16.4649 3.32407 16.1831 3.07105 16.1831 2.75893V2.19258C16.1831 1.60677 15.6524 1.13028 15 1.13028C14.3475 1.13028 13.8167 1.60677 13.8167 2.19258V2.75893C13.8167 3.07105 13.5349 3.32407 13.1873 3.32407H10.904V4.6976H10.9041ZM30 4.11785V33.6384C30 34.3892 29.3198 35 28.4837 35H1.51626C0.680175 35 0 34.3892 0 33.6384V4.11785C0 3.36702 0.680175 2.75627 1.51626 2.75627H7.61356C7.96115 2.75627 8.24293 3.00929 8.24293 3.32141C8.24293 3.63353 7.96115 3.88655 7.61356 3.88655H4.09885V31.1474H25.9011V3.88655H22.3863C22.0387 3.88655 21.7569 3.63353 21.7569 3.32141C21.7569 3.00929 22.0387 2.75627 22.3863 2.75627H28.4836C29.3197 2.75627 30 3.36702 30 4.11785ZM28.7412 4.11785C28.7412 3.99247 28.6232 3.88655 28.4837 3.88655H27.1598V31.7125C27.1598 32.0246 26.878 32.2776 26.5304 32.2776H3.46948C3.12188 32.2776 2.8401 32.0246 2.8401 31.7125V3.88655H1.51626C1.37662 3.88655 1.25875 3.99255 1.25875 4.11785V33.6384C1.25875 33.7638 1.37671 33.8697 1.51626 33.8697H28.4837C28.6233 33.8697 28.7412 33.7637 28.7412 33.6384V4.11785ZM7.08182 10.36C6.77802 10.5117 6.66859 10.8558 6.83754 11.1286L7.99397 12.9965C8.10501 13.1758 8.31549 13.2871 8.54404 13.2871C8.77251 13.2871 8.98308 13.1758 9.09412 12.9965L11.1101 9.74043C11.279 9.46763 11.1696 9.12354 10.8658 8.97184C10.5622 8.8203 10.1788 8.91831 10.0099 9.19119L8.54395 11.5588L7.9376 10.5793C7.76892 10.3065 7.38563 10.2083 7.08182 10.36ZM10.8659 17.3566C10.5621 17.205 10.1788 17.3031 10.0099 17.5759L8.54404 19.9435L7.93769 18.964C7.76883 18.6912 7.38554 18.5928 7.08173 18.7446C6.77793 18.8963 6.6685 19.2404 6.83745 19.5132L7.99388 21.3812C8.10492 21.5605 8.3154 21.6717 8.54395 21.6717C8.77242 21.6717 8.98299 21.5606 9.09403 21.3812L11.11 18.1252C11.2791 17.8524 11.1697 17.5083 10.8659 17.3566ZM14.3328 12.9324H19.748C20.0956 12.9324 20.3774 12.6794 20.3774 12.3673C20.3774 12.0552 20.0956 11.8021 19.748 11.8021H14.3328C13.9852 11.8021 13.7034 12.0552 13.7034 12.3673C13.7034 12.6794 13.9852 12.9324 14.3328 12.9324ZM22.6121 9.25522H14.3328C13.9852 9.25522 13.7034 9.50824 13.7034 9.82035C13.7034 10.1325 13.9852 10.3855 14.3328 10.3855H22.6121C22.9597 10.3855 23.2415 10.1325 23.2415 9.82035C23.2415 9.50824 22.9597 9.25522 22.6121 9.25522Z" fill="#0000FF"/>
</svg>
