<svg width="17" height="17" viewBox="0 0 17 17" fill="none" xmlns="http://www.w3.org/2000/svg">
<g clip-path="url(#clip0_7_52)">
<path d="M16.9852 6.56606C16.9493 6.45591 16.8541 6.37557 16.7394 6.35884L11.2347 5.55885L8.77295 0.570858C8.72183 0.46679 8.61593 0.401062 8.5003 0.401062C8.38467 0.401062 8.27847 0.46679 8.22765 0.570858L5.76561 5.55915L0.260927 6.35914C0.146208 6.37588 0.0512685 6.45591 0.0150575 6.56636C-0.0205449 6.67622 0.00897165 6.79732 0.0920439 6.87796L4.07556 10.7608L3.13499 16.2435C3.11551 16.3576 3.16237 16.473 3.25579 16.5411C3.34982 16.6099 3.47427 16.6187 3.57621 16.5643L8.5003 13.9759L13.4238 16.5643C13.4682 16.5877 13.5172 16.5992 13.5656 16.5992C13.6286 16.5992 13.6913 16.5798 13.7445 16.5411C13.8382 16.473 13.8851 16.3576 13.8653 16.2435L12.925 10.7611L16.9086 6.87796C16.9913 6.79672 17.0211 6.67591 16.9852 6.56606Z" fill="#FFFF00"/>
</g>
<defs>
<clipPath id="clip0_7_52">
<rect width="17" height="17" fill="white"/>
</clipPath>
</defs>
</svg>
