<svg width="30" height="30" viewBox="0 0 30 30" fill="none" xmlns="http://www.w3.org/2000/svg">
<g clip-path="url(#clip0_9_2)">
<path d="M14.2726 0.0175324C6.34962 0.394779 0.0972877 6.99308 0.121323 14.925C0.128641 17.3409 0.711874 19.6212 1.74073 21.636L0.161071 29.3038C0.0756201 29.7186 0.44971 30.0817 0.861754 29.9842L8.37533 28.2041C10.3057 29.1656 12.4739 29.721 14.7686 29.756C22.8666 29.8797 29.6189 23.4497 29.8714 15.3546C30.1419 6.67732 22.9803 -0.397166 14.2726 0.0175324ZM23.2379 23.1169C21.0375 25.3173 18.1119 26.5291 15 26.5291C13.1779 26.5291 11.4335 26.1203 9.81494 25.3141L8.76858 24.7928L4.16198 25.8843L5.13164 21.1771L4.61614 20.1677C3.77591 18.5221 3.34987 16.7427 3.34987 14.879C3.34987 11.7671 4.56168 8.8415 6.7621 6.64101C8.94285 4.46026 11.9162 3.22872 15.0002 3.22872C18.1121 3.22879 21.0376 4.4406 23.238 6.64094C25.4384 8.84136 26.6502 11.7669 26.6503 14.8787C26.6502 17.9629 25.4187 20.9362 23.2379 23.1169Z" fill="#7AD06D"/>
<path d="M22.221 18.1055L19.3389 17.2779C18.96 17.1692 18.552 17.2766 18.2759 17.558L17.5712 18.276C17.274 18.5788 16.8231 18.6761 16.4297 18.5169C15.0664 17.9652 12.1985 15.4153 11.4661 14.1398C11.2548 13.7719 11.2898 13.312 11.5492 12.9763L12.1645 12.1802C12.4056 11.8683 12.4564 11.4495 12.297 11.0889L11.0845 8.34655C10.7941 7.68971 9.9547 7.4985 9.40634 7.96227C8.60198 8.64258 7.6476 9.67639 7.53158 10.8217C7.32703 12.8409 8.19302 15.3864 11.4678 18.4428C15.251 21.9739 18.2806 22.4403 20.2531 21.9625C21.372 21.6915 22.2661 20.6051 22.8304 19.7156C23.2151 19.1091 22.9113 18.3037 22.221 18.1055Z" fill="#7AD06D"/>
</g>
<defs>
<clipPath id="clip0_9_2">
<rect width="30" height="30" fill="white"/>
</clipPath>
</defs>
</svg>
